<svg xmlns="http://www.w3.org/2000/svg" xmlns:xlink="http://www.w3.org/1999/xlink" id="Layer_1" x="0px" y="0px" viewBox="0 0 210 110" style="enable-background:new 0 0 210 110;" xml:space="preserve"><style type="text/css">	.st0{fill:#00335F;}	.st1{fill:#F6921E;}</style><g>	<g>		<circle class="st0" cx="39" cy="39.4" r="7"></circle>		<g>			<path class="st1" d="M30.4,60.6c0,0,6.5,2.7,6.3,9.7c-0.4,11-43.9,18-12.7,36.7C4.9,101.2-1.9,91.9,4.6,82.8    C11.3,73.2,41.2,74.6,30.4,60.6z"></path>			<circle class="st1" cx="16.3" cy="64.5" r="7"></circle>			<path class="st0" d="M29.5,82.1c0,0,9.7-4.5,10.7-11.3c1.1-6.8-5.3-11.5-11.5-15.8c-12.4-8.5-15.3-19.9-5.4-30.2    c-7,10.1-0.9,19.1,17.1,27.4C55.3,59.2,56.8,74.5,29.5,82.1z"></path>			<polygon class="st0" points="25.1,3 27.6,7.9 33,8.7 29,12.5 30,17.8 25.1,15.3 20.3,17.8 21.2,12.5 17.3,8.7 22.7,7.9    "></polygon>		</g>	</g>	<g>		<path class="st1" d="M24.1,90.3l2.9,4.5l2.9-4.5h3.9L28.6,98v6.3h-3.2V98l-5.2-7.8C20.2,90.3,24.1,90.3,24.1,90.3z"></path>		<path class="st1" d="M40.7,90c3.9,0,7.1,3.2,7.1,7.3s-3,7.3-7.1,7.3c-4.2,0-7.1-3.2-7.1-7.3C33.6,93.2,36.9,90,40.7,90z    M40.7,101.5c2.6,0,3.6-2.1,3.6-4.2c0-2.1-1.1-4.2-3.6-4.2c-2.5,0-3.6,2.1-3.6,4.2C37.1,99.4,38.1,101.5,40.7,101.5z"></path>		<path class="st1" d="M60,99.3c0,3.5-1.9,5.3-5.5,5.3c-3.6,0-5.5-1.8-5.5-5.3v-9.1h3.2v8.1c0,2.4,0.7,3,2.3,3c1.6,0,2.3-0.7,2.3-3   v-8.1H60L60,99.3L60,99.3z"></path>		<path class="st1" d="M60.2,90.3h9.9v2.8h-3.3v11.3h-3.2V93.1h-3.3V90.3z"></path>		<path class="st1" d="M74.5,104.3h-3.2V90.3h3.2v5.6H79v-5.6h3.2v14.1H79v-5.6h-4.5V104.3z"></path>		<path class="st0" d="M97,93.1h-4.9v2.8h4.6v2.8h-4.6v5.6h-3.2V90.3H97C97,90.3,97,93.1,97,93.1z"></path>		<path class="st0" d="M105,90c3.9,0,7.1,3.2,7.1,7.3s-3,7.3-7.1,7.3c-4.2,0-7.1-3.2-7.1-7.3S101.2,90,105,90z M105,101.5   c2.6,0,3.6-2.1,3.6-4.2c0-2.1-1.1-4.2-3.6-4.2c-2.5,0-3.6,2.1-3.6,4.2C101.4,99.4,102.4,101.5,105,101.5z"></path>		<path class="st0" d="M124.3,99.3c0,3.5-1.9,5.3-5.5,5.3c-3.6,0-5.5-1.8-5.5-5.3v-9.1h3.2v8.1c0,2.4,0.7,3,2.3,3s2.3-0.7,2.3-3   v-8.1h3.2L124.3,99.3L124.3,99.3z"></path>		<path class="st0" d="M129.4,104.3h-3.2V90.3h3.2L135,99h0v-8.7h3.2v14.1H135l-5.6-8.7h0V104.3z"></path>		<path class="st0" d="M144.3,90.3c3.9,0,7.1,2.9,7.1,7c0,4.1-3.2,7-7.1,7h-4.1V90.3H144.3z M144,101.5c2.4,0,4-1.8,4-4.2   c0-2.4-1.6-4.2-4-4.2h-0.5v8.3C143.5,101.5,144,101.5,144,101.5z"></path>		<path class="st0" d="M165.7,104.3h-3.4l-1-2.8h-5.4l-1,2.8h-3.4l5.7-14.1h3L165.7,104.3z M158.5,94.6L158.5,94.6l-1.6,4.1h3.2   L158.5,94.6z"></path>		<path class="st0" d="M164.5,90.3h9.9v2.8h-3.3v11.3h-3.2V93.1h-3.3V90.3z"></path>		<path class="st0" d="M178.8,104.3h-3.2V90.3h3.2V104.3z"></path>		<path class="st0" d="M187.3,90c3.9,0,7.1,3.2,7.1,7.3s-3,7.3-7.1,7.3c-4.2,0-7.1-3.2-7.1-7.3C180.2,93.2,183.4,90,187.3,90z    M187.3,101.5c2.6,0,3.6-2.1,3.6-4.2c0-2.1-1.1-4.2-3.6-4.2c-2.5,0-3.6,2.1-3.6,4.2C183.6,99.4,184.6,101.5,187.3,101.5z"></path>		<path class="st0" d="M199,104.3h-3.2V90.3h3.2l5.6,8.7h0v-8.7h3.2v14.1h-3.2l-5.6-8.7h0V104.3z"></path>	</g></g></svg>