<svg xmlns="http://www.w3.org/2000/svg" xmlns:xlink="http://www.w3.org/1999/xlink" x="0px" y="0px"
	 viewBox="0 0 210 110" style="enable-background:new 0 0 210 110;" xml:space="preserve">
<g>
	<g>
		<path style="fill-rule:evenodd;clip-rule:evenodd;fill:#F16322;" d="M21.034,40.833v-0.099V29.615l-0.048-0.011
			c-0.043-0.089-0.011-0.418-0.002-0.512l0.009-0.062l-2.415-0.848l21.087-1.905c0.064-0.348,0.086-0.786-0.154-0.969
			c-0.043-0.031-0.12-0.056-0.225-0.077c0.018-0.275-0.014-0.552-0.195-0.687c-1.029-0.773-22.688,1.85-23.047,2.11
			c-0.075,0.133-0.134,0.327-0.186,0.574l-1.69-0.592c-0.334,0.225-0.854,0.177-1.181,0.091c-1.51-0.393-3.921-0.675-4.613-1.55
			c-0.35-0.877,0.922-1.105,1.697-1.282c0.579-0.135,1.181-0.234,1.751-0.393c4.382-1.224,8.793-2.4,13.193-3.574
			c2.987-0.797,5.974-1.59,8.968-2.354c1.047-0.266,2.101-0.533,3.153-0.783c0.352-0.084,0.952-0.248,1.349-0.298l26.586,6.952
			c0.777,0.217,2.742,0.512,3.303,0.965c0.252,0.206,0.357,0.49,0.398,0.777c-0.547,0.783-6.11,1.997-7.03,2.207
			c-1.949,0.442-5.608,1.152-7.249,2.07l-0.307,0.168l-0.025,0.315c-0.052,0.626-0.059,2.218-0.052,4.011
			c-4.673-3.27-10.874-4.558-17.909-2.175l-0.093,0.034c-1.538,0.178-3.132,0.535-4.77,1.091
			C27.344,34.26,23.621,37.116,21.034,40.833L21.034,40.833z M60.703,26.201c0.7-0.189,1.395-0.39,2.031-0.607l1.32-0.453
			L60.703,26.201z"/>
		<path style="fill-rule:evenodd;clip-rule:evenodd;fill:#F16322;" d="M37.368,23.851c0.064-0.349,0.084-0.787-0.157-0.969
			c-1.031-0.773-22.688,1.848-23.049,2.111c-0.829,1.531-0.295,11.565-0.261,14.406h1.685l-0.002-0.057
			c-0.041-1.481-0.041-2.969-0.066-4.451l-0.016-0.804l0.209,0.094v-3.558l-0.075-2.979l0.057-1.838L37.368,23.851z"/>
		<path style="fill-rule:evenodd;clip-rule:evenodd;fill:#F16322;" d="M46.075,66.336c2.605-3.247,6.169-8.507,6.699-12.61
			c1.177-9.142-5.57-16.283-13.729-16.725C26.24,36.306,20.086,49.615,24.643,58.626c2.549,5.036,14.377,13.334,18.938,15.7
			c8.007,5.962,0.198,5.767-1.772,4.433c-6.694-4.539-17.441-10.471-21.6-17.562c-7.228-12.326,1.129-25.301,11.208-28.718
			c21.08-7.149,34.727,18.685,21.913,32.028c-4.986,5.716-5.981,7.38-5.981,7.38C46.906,71.887,43.581,69.447,46.075,66.336z"/>
		<path style="fill-rule:evenodd;clip-rule:evenodd;fill:#F16322;" d="M32.244,80.019c3.321,0.168,8.593,0.998,11.614,2.375
			c4.014,1.83,2.558,4.592-1.597,3.99c-2.119-0.307-4.632-1.116-5.872-1.391c-2.137-0.472-4.325-0.56-5.692-1.277
			C28.834,82.741,27.823,79.799,32.244,80.019z"/>
		<path style="fill-rule:evenodd;clip-rule:evenodd;fill:#F16322;" d="M32.244,87.059c3.321,0.167,8.593,0.996,11.614,2.374
			c4.014,1.83,2.558,4.591-1.597,3.992c-2.119-0.309-4.632-1.118-5.872-1.394c-2.137-0.472-4.325-0.559-5.692-1.277
			C28.834,89.782,27.823,86.839,32.244,87.059z"/>
		<path style="fill-rule:evenodd;clip-rule:evenodd;fill:#F16322;" d="M41.121,54.862l-1.881,0.932l-1.438,0.713
			c-5.504,2.73-4.525,3.164-4.18-2.262l0.132-2.097l0.102-1.601c0.386-6.132-0.479-5.498,4.05-2.487l1.749,1.162l1.336,0.888
			C46.107,53.511,45.991,52.445,41.121,54.862z"/>
	</g>
	<path style="fill-rule:evenodd;clip-rule:evenodd;fill:#62574F;" d="M70.198,67.294h8.484c7.151,0,12.094-4.974,12.094-11.377
		v-0.065c0-6.404-4.943-11.312-12.094-11.312h-8.484V67.294L70.198,67.294z M78.682,48.18c4.779,0,7.9,3.284,7.9,7.737v0.065
		c0,4.453-3.121,7.671-7.9,7.671h-4.486V48.18H78.682L78.682,48.18z M95.846,67.294h3.998V44.54h-3.998V67.294L95.846,67.294z
		 M116.715,67.683c4.03,0,7.248-1.624,9.49-3.542v-9.556h-9.686v3.478h5.817v4.258c-1.397,1.04-3.348,1.723-5.493,1.723
		c-4.647,0-7.737-3.446-7.737-8.126v-0.065c0-4.357,3.187-8.029,7.38-8.029c2.892,0,4.616,0.941,6.369,2.437l2.537-3.022
		c-2.342-1.984-4.779-3.089-8.745-3.089c-6.858,0-11.735,5.397-11.735,11.768v0.065C104.914,62.613,109.596,67.683,116.715,67.683
		L116.715,67.683z M131.634,67.294h3.998V44.54h-3.998V67.294L131.634,67.294z M147.301,67.294h4.032V48.246h7.217V44.54h-18.463
		v3.706h7.214V67.294L147.301,67.294z M157.897,67.294l10.013-22.916h3.705l10.013,22.916H177.4
		c-3.314-7.894-4.132-9.872-7.703-18.138c-3.133,7.309-4.641,10.948-7.705,18.138H157.897L157.897,67.294z M185.528,67.294h15.96
		v-3.641h-11.962V44.54h-3.998V67.294z"/>
	<path style="fill-rule:evenodd;clip-rule:evenodd;fill:#62574F;" d="M71.625,78.105c0-0.972,0.881-1.733,2.265-1.733
		c1.093,0,2.081,0.351,3.069,1.155l0.7-0.926c-1.079-0.866-2.187-1.307-3.739-1.307c-2.022,0-3.494,1.215-3.494,2.918
		c0,1.763,1.124,2.553,3.571,3.085c2.233,0.471,2.765,1.032,2.765,2.036c0,1.079-0.943,1.823-2.369,1.823
		c-1.474,0-2.539-0.501-3.648-1.504l-0.745,0.881c1.277,1.139,2.66,1.701,4.345,1.701c2.113,0,3.632-1.185,3.632-3.024
		c0-1.64-1.093-2.507-3.464-3.023C72.172,79.686,71.625,79.124,71.625,78.105L71.625,78.105z M102.638,84.396l-0.79-0.775
		c-1.02,0.973-1.976,1.534-3.435,1.534c-2.342,0-4.118-1.928-4.118-4.407c0-2.477,1.763-4.377,4.118-4.377
		c1.442,0,2.446,0.608,3.344,1.459l0.82-0.881c-1.063-1.003-2.219-1.687-4.148-1.687c-3.132,0-5.381,2.477-5.381,5.516
		c0,3.069,2.265,5.486,5.334,5.486C100.312,86.266,101.527,85.522,102.638,84.396L102.638,84.396z M125.171,81.297v4.786h1.199
		V75.446h-1.199v4.726h-6.14v-4.726h-1.202v10.636h1.202v-4.786H125.171L125.171,81.297z M152.855,80.749
		c0-2.948-2.174-5.486-5.411-5.486c-3.237,0-5.44,2.568-5.44,5.516c0,2.948,2.174,5.486,5.411,5.486
		C150.651,86.266,152.855,83.698,152.855,80.749L152.855,80.749z M151.607,80.78c0,2.431-1.731,4.376-4.164,4.376
		c-2.43,0-4.193-1.975-4.193-4.407c0-2.43,1.733-4.377,4.164-4.377C149.845,76.372,151.607,78.348,151.607,80.78L151.607,80.78z
		 M178.865,80.749c0-2.948-2.172-5.486-5.408-5.486c-3.237,0-5.44,2.568-5.44,5.516c0,2.948,2.174,5.486,5.411,5.486
		C176.664,86.266,178.865,83.698,178.865,80.749L178.865,80.749z M177.621,80.78c0,2.431-1.733,4.376-4.164,4.376
		c-2.43,0-4.193-1.975-4.193-4.407c0-2.43,1.731-4.377,4.164-4.377C175.858,76.372,177.621,78.348,177.621,80.78L177.621,80.78z
		 M194.5,86.083h7.187v-1.109H195.7v-9.528H194.5V86.083z"/>
</g>
</svg>
