<svg xmlns="http://www.w3.org/2000/svg" xmlns:xlink="http://www.w3.org/1999/xlink" x="0px" y="0px"
	 viewBox="0 0 210 110" style="enable-background:new 0 0 210 110;" xml:space="preserve">
<g>
	<g>
		<path style="fill-rule:evenodd;clip-rule:evenodd;fill:#082E4A;" d="M18.263,36.037l-0.201-5.254c0,0-10.713-5.07-13.248-6.46
			c-2.535-1.39-2.862-2.944,3.353-5.643c6.215-2.699,21.61-9.425,24.145-10.488c6.198-2.599,9.339-2.599,15.538,0
			c2.535,1.063,17.93,7.789,24.145,10.488c6.215,2.699,5.888,4.252,3.353,5.643c-2.535,1.39-13.248,6.46-13.248,6.46L61.9,36.037
			H18.263z"/>
		<rect x="6.552" y="22.666" style="fill-rule:evenodd;clip-rule:evenodd;fill:#082E4A;" width="2.126" height="11.612"/>
		<path style="fill-rule:evenodd;clip-rule:evenodd;fill:#082E4A;" d="M7.738,33.216c1.558,0,2.821,1.263,2.821,2.821
			c0,1.558-1.263,2.821-2.821,2.821c-1.558,0-2.821-1.263-2.821-2.821C4.917,34.479,6.18,33.216,7.738,33.216"/>
		<path style="fill-rule:evenodd;clip-rule:evenodd;fill:#082E4A;" d="M7.651,35.015L4.626,45.756c0,0,1.076,1.597,3.026,1.597
			c1.95,0,3.026-1.597,3.026-1.597L7.651,35.015z"/>
		<path style="fill-rule:evenodd;clip-rule:evenodd;fill:#8CC740;" d="M63.998,91.944V42.836c0-0.735-0.615-1.349-1.349-1.349
			H17.514c-0.735,0-1.349,0.615-1.349,1.349v36.387c0,0.734,0.615,1.349,1.349,1.349h38.592l1.159,1.68
			c1.376,1.994,2.755,3.986,4.139,5.975C62.267,89.467,63.131,90.706,63.998,91.944 M17.514,37.599h45.134
			c2.881,0,5.237,2.357,5.237,5.237v18.193v0.03v0.089v0.147v0.202v0.256v0.307v0.357v0.405v0.451v0.495v0.537v0.578v0.616v0.653
			v0.688v0.721v0.751v0.781v0.808v0.833v0.856v0.878v0.897v0.915v0.931v0.945v0.957v0.967v0.975v0.166v24.51
			c0,0.644-8.192-11.117-13.821-19.273H17.514c-2.881,0-5.237-2.357-5.237-5.237V42.836C12.277,39.955,14.634,37.599,17.514,37.599z
			"/>
		<path style="fill-rule:evenodd;clip-rule:evenodd;fill:#FFFFFF;" d="M57.865,49.656c2.616,0,6.346,0.222,8.1,2.486
			c1.821,2.352,1.059,6.39,0.456,9.043c-1.08,4.753-5.405,6.065-9.766,6.065c-3.139,0-6.21-1.39-8.466-3.538
			c-2-1.905-3.574-4.66-3.313-7.505c0.086-0.93,0.367-1.813,0.834-2.621C47.905,49.783,54.002,49.656,57.865,49.656 M34.453,53.585
			c0.467,0.809,0.748,1.692,0.834,2.621c0.262,2.845-1.313,5.6-3.313,7.505c-2.256,2.148-5.327,3.538-8.466,3.538
			c-4.361,0-8.686-1.311-9.766-6.065c-0.603-2.653-1.365-6.691,0.456-9.043c1.753-2.264,5.484-2.486,8.1-2.486
			C26.161,49.656,32.258,49.783,34.453,53.585z"/>
		<path style="fill-rule:evenodd;clip-rule:evenodd;fill:#8CC740;" d="M66.136,61.12c-1.04,4.577-5.21,5.838-9.481,5.838
			c-7.315,0-13.871-7.721-10.692-13.227c2.111-3.657,8.094-3.783,11.903-3.783C66.31,49.948,67.981,53.004,66.136,61.12
			 M14.026,61.12c1.04,4.577,5.21,5.838,9.481,5.838c7.315,0,13.871-7.721,10.692-13.227c-2.111-3.657-8.094-3.783-11.903-3.783
			C13.853,49.948,12.182,53.004,14.026,61.12z M40.081,50.166c-4.748,0-10.894-2.048-17.784-2.048
			c-6.89,0-13.128,2.234-13.128,5.307c1.658,2.872,2.607,6.052,3.073,8.1c0.466,2.048,2.235,7.263,11.266,7.263
			c9.032,0,12.57-7.076,13.873-10.894c1.305-3.821,4.096-3.821,5.4,0c1.304,3.818,4.842,10.894,13.873,10.894
			c9.032,0,10.801-5.214,11.266-7.263c0.466-2.048,1.415-5.228,3.073-8.1c0-3.073-6.238-5.307-13.128-5.307
			C50.975,48.118,44.83,50.166,40.081,50.166z"/>
		<path style="fill-rule:evenodd;clip-rule:evenodd;fill:#082E4A;" d="M25.543,54.123c0.4,0,0.787,0.054,1.155,0.156
			c-0.626,0.463-1.031,1.206-1.031,2.043c0,1.403,1.137,2.54,2.54,2.54c0.635,0,1.216-0.233,1.661-0.618
			c0.003,0.069,0.005,0.138,0.005,0.208c0,2.391-1.938,4.329-4.33,4.329s-4.33-1.938-4.33-4.329
			C21.213,56.061,23.152,54.123,25.543,54.123"/>
		<path style="fill-rule:evenodd;clip-rule:evenodd;fill:#082E4A;" d="M54.906,54.123c0.4,0,0.787,0.054,1.155,0.156
			c-0.626,0.463-1.031,1.206-1.031,2.043c0,1.403,1.137,2.54,2.54,2.54c0.635,0,1.216-0.233,1.661-0.618
			c0.003,0.069,0.005,0.138,0.005,0.208c0,2.391-1.938,4.329-4.33,4.329c-2.391,0-4.33-1.938-4.33-4.329
			C50.577,56.061,52.515,54.123,54.906,54.123"/>
		<path style="fill-rule:evenodd;clip-rule:evenodd;fill:#082E4A;" d="M32.352,73.533c0,4.05,15.459,4.05,15.459,0
			c0-0.224-0.334-0.414-0.9-0.573c-2.733,2.024-10.925,2.024-13.659,0C32.686,73.118,32.352,73.309,32.352,73.533"/>
	</g>
	<g>
		<path d="M194.499,39.801v-2.207h12.393v2.207h-5.045v20.434h-2.302V39.801H194.499z M173.881,60.235V37.593h0.489l15.057,17.318
			V37.593h2.271v22.642h-0.515L176.215,43.07v17.165H173.881z M157.41,37.593h12.961v2.207h-10.69v7.095h10.596v2.208H159.68v8.924
			h10.596v2.208H157.41V37.593z M136.524,58.091h2.612c3.122,0,5.282-0.195,6.491-0.584c1.698-0.557,3.038-1.55,4.01-2.99
			c0.972-1.445,1.456-3.206,1.456-5.287c0-2.181-0.525-4.052-1.582-5.597c-1.051-1.55-2.523-2.612-4.404-3.185
			c-1.414-0.431-3.742-0.646-6.985-0.646h-1.598V58.091z M134.348,60.235V37.593h4.698c3.385,0,5.844,0.273,7.374,0.815
			c2.197,0.773,3.916,2.102,5.151,4.005c1.235,1.897,1.855,4.157,1.855,6.785c0,2.271-0.489,4.263-1.472,5.986
			c-0.977,1.724-2.255,3.001-3.816,3.821c-1.566,0.82-3.763,1.23-6.585,1.23H134.348z M114.23,37.593h2.271v13.675
			c0,1.619,0.032,2.633,0.094,3.033c0.11,0.893,0.373,1.64,0.783,2.239c0.41,0.599,1.041,1.104,1.892,1.508
			c0.851,0.405,1.708,0.61,2.575,0.61c0.746,0,1.466-0.158,2.155-0.478c0.683-0.315,1.261-0.757,1.724-1.324
			c0.463-0.562,0.799-1.246,1.014-2.045c0.152-0.578,0.231-1.755,0.231-3.542V37.593h2.27v13.665c0,2.023-0.2,3.658-0.594,4.903
			c-0.394,1.246-1.188,2.334-2.37,3.253c-1.188,0.925-2.623,1.388-4.31,1.388c-1.829,0-3.395-0.437-4.699-1.309
			c-1.309-0.872-2.181-2.023-2.622-3.463c-0.279-0.883-0.415-2.47-0.415-4.772V37.593z M98.905,39.801v-2.207h12.393v2.207h-5.045
			v20.434h-2.302V39.801H98.905z M83.543,55.999l1.924-1.156c1.356,2.502,2.922,3.753,4.698,3.753c0.762,0,1.477-0.179,2.144-0.531
			c0.667-0.352,1.177-0.83,1.524-1.424c0.352-0.594,0.526-1.225,0.526-1.892c0-0.757-0.258-1.498-0.773-2.228
			c-0.709-1.004-2.002-2.218-3.889-3.632c-1.892-1.429-3.069-2.46-3.532-3.096c-0.804-1.067-1.203-2.223-1.203-3.463
			c0-0.983,0.236-1.881,0.709-2.691c0.473-0.809,1.141-1.445,2.002-1.913c0.862-0.468,1.792-0.699,2.801-0.699
			c1.072,0,2.076,0.263,3.006,0.794c0.93,0.525,1.918,1.498,2.959,2.911l-1.85,1.403c-0.857-1.13-1.587-1.876-2.192-2.234
			c-0.605-0.363-1.261-0.541-1.971-0.541c-0.92,0-1.671,0.279-2.255,0.83c-0.583,0.557-0.878,1.235-0.878,2.05
			c0,0.489,0.105,0.967,0.31,1.429c0.205,0.463,0.583,0.962,1.13,1.509c0.294,0.284,1.277,1.041,2.938,2.26
			c1.966,1.451,3.316,2.739,4.047,3.863c0.731,1.13,1.099,2.265,1.099,3.406c0,1.64-0.625,3.069-1.871,4.278
			c-1.251,1.214-2.77,1.819-4.557,1.819c-1.377,0-2.628-0.368-3.747-1.104C85.524,58.963,84.489,57.728,83.543,55.999z"/>
		<path style="fill:#8CC740;" d="M206.891,72.974h-1.096l-5.526-4.467v4.467h-1.451v-6.63h1.096l5.541,4.404v-4.404h1.436V72.974z
			 M187.374,71.705v-4.138h-5.263v4.138H187.374z M188.963,71.407c0,0.627-0.123,1.045-0.37,1.254
			c-0.247,0.209-0.689,0.313-1.327,0.313h-5.047c-0.638,0-1.08-0.102-1.328-0.306c-0.247-0.204-0.37-0.624-0.37-1.261v-3.495
			c0-0.638,0.124-1.058,0.37-1.262c0.247-0.204,0.69-0.306,1.328-0.306h5.047c0.638,0,1.08,0.102,1.327,0.306
			c0.247,0.204,0.37,0.624,0.37,1.262V71.407z M170.665,72.974h-1.59v-6.63h1.59V72.974z M159.915,67.536h-3.164v5.438h-1.59v-5.438
			h-3.149v-1.191h7.902V67.536z M142.851,71.407c0,0.627-0.126,1.045-0.378,1.254c-0.252,0.209-0.697,0.313-1.335,0.313h-4.322
			c-0.638,0-1.08-0.104-1.327-0.313c-0.247-0.209-0.37-0.627-0.37-1.254v-5.063h1.59v5.391h4.538v-5.391h1.605V71.407z
			 M125.927,72.974h-6.729v-6.63h1.605v5.391h5.124V72.974z M107.752,71.705v-4.138h-5.263v4.138H107.752z M109.342,71.407
			c0,0.627-0.123,1.045-0.37,1.254c-0.247,0.209-0.69,0.313-1.327,0.313h-5.047c-0.638,0-1.08-0.102-1.327-0.306
			c-0.247-0.204-0.37-0.624-0.37-1.261v-3.495c0-0.638,0.123-1.058,0.37-1.262c0.247-0.204,0.69-0.306,1.327-0.306h5.047
			c0.638,0,1.08,0.102,1.327,0.306c0.247,0.204,0.37,0.624,0.37,1.262V71.407z M91.198,71.407c0,0.627-0.123,1.045-0.37,1.254
			c-0.247,0.209-0.689,0.313-1.327,0.313h-4.244c-0.7,0-1.16-0.117-1.381-0.353c-0.221-0.235-0.332-0.703-0.332-1.403l1.42-0.266
			v0.784h4.8v-1.52h-4.229c-0.638,0-1.075-0.099-1.312-0.298c-0.267-0.219-0.401-0.643-0.401-1.269v-0.737
			c0-0.627,0.134-1.05,0.401-1.269c0.237-0.199,0.674-0.298,1.312-0.298h3.874c0.659,0,1.109,0.105,1.35,0.313
			c0.242,0.209,0.363,0.638,0.363,1.285l-1.374,0.298v-0.705h-4.491v1.395H89.5c0.638,0,1.08,0.102,1.327,0.305
			c0.247,0.204,0.37,0.624,0.37,1.262V71.407z"/>
	</g>
</g>
</svg>
