<svg xmlns="http://www.w3.org/2000/svg" xmlns:xlink="http://www.w3.org/1999/xlink" x="0px" y="0px" viewBox="0 0 210 110" style="enable-background:new 0 0 210 110;" xml:space="preserve"><g id="XMLID_41_">	<g id="XMLID_40_">		<path id="XMLID_106_" style="fill:#F7941E;" d="M58.816,75.983c2.954-3.77,4.715-8.519,4.715-13.68   c0-12.26-9.94-22.199-22.2-22.199s-22.2,9.939-22.2,22.199c0,12.261,9.94,22.2,22.2,22.2c5.063,0,9.729-1.696,13.464-4.549   l7.325,3.955c0.355,0.192,0.826-0.281,0.634-0.634L58.816,75.983z M30.086,65.089c-1.64,0-2.971-1.331-2.971-2.971   c0-1.641,1.331-2.971,2.971-2.971c1.641,0,2.971,1.33,2.971,2.971C33.057,63.758,31.727,65.089,30.086,65.089z M41.331,65.089   c-1.641,0-2.971-1.331-2.971-2.971c0-1.641,1.33-2.971,2.971-2.971s2.971,1.33,2.971,2.971   C44.303,63.758,42.973,65.089,41.331,65.089z M52.577,65.089c-1.641,0-2.971-1.331-2.971-2.971c0-1.641,1.33-2.971,2.971-2.971   c1.64,0,2.971,1.33,2.971,2.971C55.548,63.758,54.217,65.089,52.577,65.089z"></path>		<path id="XMLID_78_" style="fill:#F15A29;" d="M77.053,45.61v12.819h-4.58l1.34-11.391l-9.957,4.325   c-4.068-8.341-12.636-14.102-22.524-14.102s-18.456,5.761-22.524,14.102L5.831,45.728c-2.367-1.033-2.367-4.385,0-5.418   l32.84-14.26c1.7-0.738,3.623-0.738,5.324,0l32.84,14.26C79.124,41.308,79.196,44.471,77.053,45.61z"></path>	</g>	<g id="XMLID_3_">		<g id="XMLID_26_">			<path id="XMLID_37_" d="M109.374,51.539c0,6.221-5.014,11.018-11.545,11.018c-6.531,0-11.545-4.797-11.545-11.018    c0-6.252,5.014-10.957,11.545-10.957C104.36,40.582,109.374,45.318,109.374,51.539z M90.525,51.539    c0,4.086,3.374,7.304,7.366,7.304c3.962,0,7.243-3.219,7.243-7.304s-3.281-7.243-7.243-7.243    C93.868,44.296,90.525,47.453,90.525,51.539z"></path>			<path id="XMLID_35_" d="M117.267,40.706l11.173,14.826V40.706h4.024v21.666h-3.931l-11.142-14.795v14.795h-4.055V40.706H117.267z    "></path>			<path id="XMLID_33_" d="M142.246,40.706v17.921h9.347v3.745h-13.495V40.706H142.246z"></path>			<path id="XMLID_31_" d="M159.3,40.706v21.666h-4.147V40.706H159.3z"></path>			<path id="XMLID_29_" d="M168.864,40.706l11.173,14.826V40.706h4.024v21.666h-3.931l-11.142-14.795v14.795h-4.055V40.706H168.864z    "></path>			<path id="XMLID_27_" d="M205.573,40.706v3.621h-11.731v5.355h10.523v3.621h-10.523v5.447h12.102v3.621h-16.249V40.706H205.573z"></path>		</g>		<g id="XMLID_4_">			<path id="XMLID_24_" d="M96.926,67.366v1.128h-6.021v3.583h5.381v1.113h-5.381v3.72h6.219v1.128h-7.439V67.366H96.926z"></path>			<path id="XMLID_21_" d="M112.461,72.702c0,3.034-2.393,5.335-5.534,5.335h-4.268V67.366h4.314    C110.082,67.366,112.461,69.668,112.461,72.702z M111.226,72.717c0-2.409-1.89-4.223-4.284-4.223h-3.064v8.415h3.11    C109.366,76.909,111.226,75.11,111.226,72.717z"></path>			<path id="XMLID_19_" d="M121.989,76.97c2.027,0,3.247-1.22,3.247-3.323v-6.281h1.22v6.281c0,2.79-1.677,4.436-4.466,4.436    c-2.805,0-4.497-1.646-4.497-4.436v-6.281h1.22v6.281C118.712,75.75,119.962,76.97,121.989,76.97z"></path>			<path id="XMLID_17_" d="M137.066,68.448c-2.409,0-4.344,1.875-4.344,4.238c0,2.348,1.936,4.253,4.344,4.253    c1.174,0,2.317-0.488,3.156-1.281l0.747,0.808c-1.052,0.991-2.485,1.616-3.963,1.616c-3.079,0-5.518-2.378-5.518-5.396    c0-2.988,2.47-5.351,5.564-5.351c1.463,0,2.881,0.594,3.902,1.555l-0.732,0.884C139.399,68.951,138.24,68.448,137.066,68.448z"></path>			<path id="XMLID_14_" d="M152.906,75.308h-5.808l-1.189,2.729h-1.296l4.787-10.671h1.265l4.771,10.671h-1.326L152.906,75.308z     M152.418,74.18l-2.424-5.488l-2.393,5.488H152.418z"></path>			<path id="XMLID_12_" d="M165.91,67.366v1.128h-3.491v9.543h-1.22v-9.543h-3.476v-1.128H165.91z"></path>			<path id="XMLID_10_" d="M171.947,67.366v10.671h-1.22V67.366H171.947z"></path>			<path id="XMLID_7_" d="M188.396,72.702c0,3.003-2.47,5.381-5.579,5.381c-3.125,0-5.595-2.378-5.595-5.381s2.47-5.366,5.595-5.366    C185.927,67.336,188.396,69.699,188.396,72.702z M178.457,72.702c0,2.363,1.982,4.268,4.36,4.268    c2.378,0,4.329-1.906,4.329-4.268s-1.951-4.238-4.329-4.238C180.439,68.464,178.457,70.339,178.457,72.702z"></path>			<path id="XMLID_5_" d="M194.937,67.366l6.402,8.674v-8.674h1.204v10.671h-1.25l-6.402-8.659v8.659h-1.22V67.366H194.937z"></path>		</g>	</g></g></svg>