<svg xmlns="http://www.w3.org/2000/svg" xmlns:xlink="http://www.w3.org/1999/xlink" x="0px" y="0px" viewBox="0 0 210 110" style="enable-background:new 0 0 210 110;" xml:space="preserve"><style type="text/css">	.st0{fill-rule:evenodd;clip-rule:evenodd;fill:#404041;}	.st1{fill-rule:evenodd;clip-rule:evenodd;fill:#00A7E1;}	.st2{fill:#00A7E1;}</style><g>	<path class="st0" d="M36.7,91.9c-0.3-0.2-0.6-0.5-0.9-0.7L30.6,82c0.7-0.7,1-1.8,0.8-2.8c-0.4-1.5-1.8-2.5-3.3-2.3L17.4,53.6  l8.9-0.7l-0.8-3.4c-1.1-5.3,7-16.2,22.5-23.4c15.5-7,29.1-5.9,32.4-1.6l2.1,2.8l18.1-17.7L40.3,7.8L1,54.9l14.2-1.1L26,77.9  c-0.6,0.7-0.9,1.7-0.7,2.7c0.3,1.4,1.6,2.4,3,2.4l3.9,10.7c-1,1.2-1.5,2.9-1.1,4.5c0.6,2.8,3.4,4.5,6.2,3.9  c2.8-0.6,4.5-3.4,3.9-6.2C40.7,93.6,38.8,92.1,36.7,91.9z"></path>	<path class="st1" d="M43.9,57.3c0-5.2,1.5-9.4,4.4-12.7c3.1-3.5,7.4-5.3,12.3-5.3c4.1,0,7.7,1.1,10.6,3.2c2.6,2.1,4.4,4.8,5.2,7.8  c5.4-2.6,10.3-4.7,13.9-6.1L78.8,28.1c-3-4.1-15.4-5.2-29.5,1.2c-14,6.6-21.4,16.8-20.3,21.9l4.7,20.9c3.1-1.7,7.2-3.9,12-6.4  C44.5,63.3,43.9,60.5,43.9,57.3z"></path>	<g>		<path class="st2" d="M61.4,57.9c0,0.7,0.2,1.2,0.7,1.7c0.5,0.5,1,0.7,1.7,0.7h2.8c-0.3,1.6-0.9,2.8-1.9,3.7   c-1,0.9-2.2,1.3-3.8,1.3c-2.1,0-3.7-0.7-4.8-2.1c-1.2-1.4-1.8-3.4-1.8-5.9c0-2.5,0.6-4.5,1.7-5.9c1.1-1.4,2.7-2.1,4.6-2.1   c1.5,0,2.7,0.3,3.6,0.9c0.6,0.5,1,0.9,1.3,1.5c0.4,0.9,1.1,1.3,2.1,1.3H71c-0.4-2.4-1.5-4.3-3.3-5.8c-1.9-1.4-4.3-2.1-7.2-2.1   c-3.3,0-6,1.1-8,3.4c-1.9,2.2-2.9,5.1-2.9,8.8c0,3.8,1,6.7,3,8.9c1.9,2.2,4.6,3.3,7.9,3.3c1.4,0,2.7-0.2,3.8-0.7   c1.1-0.5,2.1-1.4,2.9-2.6l0.2,0.9c0.3,1.3,1.1,1.9,2.4,1.9h1.3V56.3h-9.7L61.4,57.9L61.4,57.9z"></path>		<path class="st2" d="M83.3,51c-1.2,0-2.4,0.2-3.5,0.5s-2.1,0.8-3,1.5c-0.9,0.7-1.6,1.7-2.1,2.9c-0.5,1.2-0.8,2.7-0.8,4.4V69h4.7   v-9.2c0-1.3,0.3-2.3,0.9-3s1.6-0.9,2.9-0.9h1.6V51c-0.1,0-0.2,0-0.3,0C83.5,51,83.4,51,83.3,51z"></path>		<path class="st2" d="M99,51.9c-1.3-0.9-3.2-1.3-5.7-1.3c-2.2,0-4,0.5-5.2,1.6c-1.1,0.9-1.7,2-1.9,3.4h4.5c0.2-0.5,0.6-0.8,1.1-1   s1.1-0.3,1.7-0.3c0.6,0,1.2,0.1,1.9,0.3c0.7,0.2,1,0.6,1,1.3c0,0.9-1,1.5-3,1.8c-0.4,0-0.8,0.1-1.1,0.2c-0.3,0.1-0.6,0.1-0.8,0.1   c-1.7,0.3-3.1,0.8-4.2,1.6c-1.1,0.8-1.7,2.2-1.7,4c0,2,0.6,3.5,1.8,4.4s2.6,1.3,4.3,1.3c0.8,0,1.7-0.1,2.8-0.2   c1.1-0.1,2.1-0.4,3-0.9c0.9-0.4,1.7-1.2,2.3-2.2c0.7-1,1-2.4,1-4.2v-6.1C100.9,54,100.3,52.8,99,51.9z M96.5,61.6   c0,1.3-0.4,2.2-1.1,3c-0.7,0.7-1.7,1.1-3,1.1c-0.8,0-1.3-0.2-1.8-0.5c-0.4-0.4-0.6-0.9-0.6-1.6c0-0.5,0.2-1,0.5-1.5   c0.4-0.4,0.9-0.7,1.8-0.9l1.6-0.3c1.1-0.3,2-0.6,2.6-0.9L96.5,61.6L96.5,61.6z"></path>		<path class="st2" d="M117.5,45.7h-2.3v7.7c-0.5-0.9-1.3-1.6-2.2-2.1c-0.9-0.5-1.8-0.7-3-0.7c-2.1,0-3.8,0.9-5.2,2.6   c-1.3,1.7-2,4-2,6.8c0,2.9,0.7,5.2,2,6.8c0.7,0.9,1.6,1.5,2.7,1.9s2.3,0.6,3.4,0.6c2.2,0,4.2-0.6,6-1.7c1.8-1.1,2.8-3.3,2.8-6.5   V48c0-0.6-0.2-1.1-0.7-1.6C118.7,45.9,118.1,45.7,117.5,45.7z M114.3,64c-0.7,0.9-1.6,1.4-2.8,1.4c-1.3,0-2.2-0.5-2.9-1.4   s-1-2.3-1-4.1c0-1.6,0.3-2.9,1-3.8c0.7-0.9,1.6-1.4,2.8-1.4c1.2,0,2.2,0.5,2.9,1.3c0.7,0.9,1,2.2,1,3.8   C115.2,61.6,114.9,63,114.3,64z"></path>		<path class="st2" d="M134,51.7c-0.4,0.5-0.6,1-0.6,1.6v9.2c0,1.1-0.3,1.9-1,2.4s-1.4,0.7-2.2,0.7s-1.5-0.2-2.2-0.7   c-0.6-0.5-0.9-1.3-0.9-2.4V51h-4.7v10.5c0,3.1,0.8,5.2,2.4,6.1c1.6,1,3.4,1.5,5.3,1.6c2,0,3.8-0.5,5.5-1.5c1.7-1,2.5-3.1,2.5-6.3   V51h-2.4C134.9,51,134.4,51.2,134,51.7z"></path>		<path class="st2" d="M153.3,51.9c-1.3-0.9-3.1-1.3-5.7-1.3c-2.2,0-4,0.5-5.2,1.6c-1.1,0.9-1.7,2-1.9,3.4h4.5   c0.2-0.5,0.6-0.8,1.1-1s1.1-0.3,1.7-0.3c0.6,0,1.2,0.1,1.9,0.3c0.7,0.2,1,0.6,1,1.3c0,0.9-1,1.5-3,1.8c-0.4,0-0.8,0.1-1.1,0.2   c-0.3,0.1-0.6,0.1-0.8,0.1c-1.7,0.3-3.1,0.8-4.2,1.6c-1.1,0.8-1.7,2.2-1.7,4c0,2,0.6,3.5,1.8,4.4c1.2,0.9,2.6,1.3,4.3,1.3   c0.8,0,1.7-0.1,2.8-0.2c1.1-0.1,2.1-0.4,3-0.9c0.9-0.4,1.7-1.2,2.3-2.2c0.7-1,1-2.4,1-4.2v-6.1C155.2,54,154.6,52.8,153.3,51.9z    M150.8,61.6c0,1.3-0.4,2.2-1.1,3c-0.7,0.7-1.7,1.1-3,1.1c-0.8,0-1.4-0.2-1.8-0.5c-0.4-0.4-0.6-0.9-0.6-1.6c0-0.5,0.2-1,0.5-1.5   c0.4-0.4,0.9-0.7,1.8-0.9l1.6-0.3c1.1-0.3,2-0.6,2.6-0.9V61.6z"></path>		<path class="st2" d="M162.8,48c0-0.6-0.2-1.2-0.7-1.6s-1-0.7-1.6-0.7h-2.4v19.8c0,2.1,0.9,3.2,2.6,3.3c1.7,0.1,3.3,0.2,4.8,0.1   v-3.5h-1.4c-0.9,0-1.4-0.4-1.4-1.1v-10h0.5c0.6,0,1.2-0.2,1.6-0.6c0.4-0.4,0.7-1,0.7-1.7v-0.9h-2.8L162.8,48L162.8,48z"></path>		<path class="st2" d="M170.6,45.7h-2.4v3.7h4.7V48c0-0.6-0.2-1.2-0.7-1.6C171.7,46,171.2,45.7,170.6,45.7z"></path>		<path class="st2" d="M170.6,51h-2.4v18h4.7V53.3c0-0.6-0.2-1.2-0.7-1.6C171.7,51.2,171.2,51,170.6,51z"></path>		<path class="st2" d="M186,51.1c-1.5-0.5-3.1-0.7-5-0.4c-1.8,0.2-3.4,1-4.5,2.4c-0.7,0.8-1.2,1.8-1.6,3s-0.5,2.4-0.5,3.6   c0,1.5,0.2,2.9,0.6,4.3c0.4,1.4,1.1,2.5,2,3.3c0.9,0.8,2.1,1.4,3.6,1.7c1.5,0.3,3,0.3,4.5-0.1c1.7-0.4,3-1.3,4.1-2.8   c0.5-0.7,0.9-1.6,1.2-2.6s0.5-2.3,0.5-3.7c0-2-0.4-3.7-1.1-5.2C189,53,187.7,51.8,186,51.1z M185.5,63.8c-0.5,0.8-1.2,1.3-1.9,1.5   c-0.7,0.2-1.4,0.2-2.1-0.1c-0.7-0.2-1.1-0.6-1.4-0.9c-0.7-0.8-1.1-2.2-1.1-4.3c-0.1-2,0.3-3.6,1.3-4.6c0.3-0.3,0.8-0.6,1.5-0.8   c0.7-0.2,1.4-0.2,2,0c0.7,0.2,1.3,0.7,1.8,1.6c0.5,0.8,0.8,2,0.8,3.6C186.3,61.7,186,63,185.5,63.8z"></path>		<path class="st2" d="M206.6,52.2c-1.7-1-3.5-1.6-5.5-1.6c-1.9,0.1-3.7,0.7-5.3,1.7s-2.4,3.1-2.4,6.1V69h4.7V57.5   c0-1.1,0.3-1.9,0.9-2.4s1.4-0.7,2.2-0.7s1.5,0.2,2.2,0.7s1,1.3,1,2.4v9.2c0,0.7,0.2,1.2,0.6,1.7c0.4,0.4,1,0.6,1.7,0.6h2.4V58.4   C209,55.3,208.2,53.2,206.6,52.2z"></path>	</g></g></svg>