<svg xmlns="http://www.w3.org/2000/svg" xmlns:xlink="http://www.w3.org/1999/xlink" x="0px" y="0px"
	 viewBox="0 0 210 110" style="enable-background:new 0 0 210 110;" xml:space="preserve">
<g>
	<g>
		<linearGradient id="SVGID_1_" gradientUnits="userSpaceOnUse" x1="15.1609" y1="79.5535" x2="18.637" y2="51.2424">
			<stop  offset="0" style="stop-color:#007FC3"/>
			<stop  offset="1" style="stop-color:#5CAF47"/>
		</linearGradient>
		<path style="fill-rule:evenodd;clip-rule:evenodd;fill:url(#SVGID_1_);" d="M3.34,72.684l0.431-23.63l5.37-3.007l20.191,11.385
			l0.645,24.704c-4.296,3.437-4.949,3.027-8.378,1.503L3.34,72.684L3.34,72.684z M5.339,69.673l17.062,10.096l0.014-17.55
			l-16.73-9.758L5.339,69.673L5.339,69.673z M12.421,74.758c-0.67-0.39-1.428-0.339-1.691,0.114
			c-0.263,0.452,0.068,1.135,0.738,1.525c0.67,0.39,1.428,0.339,1.691-0.113C13.422,75.832,13.091,75.148,12.421,74.758
			L12.421,74.758z M3.771,49.055l20.622,12.029v22.771l3.651-2.792l-0.429-22.771L8.945,47.829L5.306,49.95L3.771,49.055z"/>
		
			<linearGradient id="SVGID_00000088131378032470121110000016970337167180051610_" gradientUnits="userSpaceOnUse" x1="44.8488" y1="82.9766" x2="46.0834" y2="47.6225">
			<stop  offset="0" style="stop-color:#490E4A"/>
			<stop  offset="1" style="stop-color:#E41D37"/>
		</linearGradient>
		<path style="fill-rule:evenodd;clip-rule:evenodd;fill:url(#SVGID_00000088131378032470121110000016970337167180051610_);" d="
			M58.471,72.684l-0.429-23.63l-1.203,0.701l0.733-0.539l-5.101-3.447l-0.025,0.405L32.478,57.433l-0.645,24.704
			c4.296,3.437,4.949,3.027,8.378,1.503L58.471,72.684L58.471,72.684z M56.271,50.088L37.418,61.084v22.771l-3.651-2.792
			l0.429-22.771l18.635-10.443L56.271,50.088z"/>
		
			<linearGradient id="SVGID_00000036953864892355945950000008945744794951208368_" gradientUnits="userSpaceOnUse" x1="30.6563" y1="29.7599" x2="31.0308" y2="51.2195">
			<stop  offset="0" style="stop-color:#F37C20"/>
			<stop  offset="1" style="stop-color:#CD2026"/>
		</linearGradient>
		<path style="fill-rule:evenodd;clip-rule:evenodd;fill:url(#SVGID_00000036953864892355945950000008945744794951208368_);" d="
			M31.606,25.228l20.249,12.188l-0.962,0.55l0.552,4.711l0.329,0.894L31.817,55.365L10.101,43.571
			c-0.827-5.438-0.146-5.799,2.888-8.007L31.606,25.228L31.606,25.228z M29.504,32.212v8.569l6.352-4.44L29.504,32.212
			L29.504,32.212z M49.451,38.788L31.125,49.26L11.406,37.875l0.593,4.559l19.934,11.013l18.047-10.73L49.451,38.788z"/>
		<polygon style="fill-rule:evenodd;clip-rule:evenodd;fill:#FFFFFF;" points="43.786,64.671 52.902,59.353 52.902,60.937 
			43.786,66.255 		"/>
		<polygon style="fill-rule:evenodd;clip-rule:evenodd;fill:#FFFFFF;" points="43.786,68.662 52.902,63.344 52.902,64.928 
			43.786,70.246 		"/>
		<polygon style="fill-rule:evenodd;clip-rule:evenodd;fill:#FFFFFF;" points="43.786,72.587 52.902,67.269 52.902,68.855 
			43.786,74.172 		"/>
	</g>
	<path style="fill-rule:evenodd;clip-rule:evenodd;" d="M67.712,58.374h8.978c7.569,0,12.799-5.264,12.799-12.041v-0.068
		c0-6.778-5.23-11.972-12.799-11.972h-8.978V58.374L67.712,58.374z M76.69,38.146c5.059,0,8.362,3.474,8.362,8.187v0.069
		c0,4.713-3.303,8.118-8.362,8.118h-4.747V38.146H76.69L76.69,38.146z M94.855,58.374h4.231v-24.08h-4.231V58.374L94.855,58.374z
		 M116.941,58.786c4.264,0,7.67-1.721,10.045-3.749V44.923h-10.251v3.68h6.158v4.507c-1.479,1.101-3.544,1.824-5.816,1.824
		c-4.918,0-8.186-3.646-8.186-8.601v-0.068c0-4.611,3.371-8.498,7.808-8.498c3.062,0,4.885,0.997,6.742,2.58l2.684-3.198
		c-2.478-2.099-5.056-3.269-9.255-3.269c-7.257,0-12.417,5.712-12.417,12.453v0.069C104.454,53.419,109.407,58.786,116.941,58.786
		L116.941,58.786z M132.732,58.374h4.231v-24.08h-4.231V58.374L132.732,58.374z M149.312,58.374h4.266v-20.16h7.637v-3.921h-19.541
		v3.921h7.637V58.374L149.312,58.374z M160.526,58.374l10.596-24.253h3.922l10.596,24.253h-4.473
		c-3.484-8.295-4.541-10.839-8.153-19.196c-3.283,7.661-4.921,11.609-8.153,19.196H160.526L160.526,58.374z M189.768,58.374h16.892
		V54.52h-12.661V34.293h-4.231V58.374z"/>
	<path style="fill-rule:evenodd;clip-rule:evenodd;" d="M76.202,67.566h-8.211v11.358h8.294v-1.169h-7.011v-3.976h6.198v-1.167
		h-6.198v-3.879h6.928V67.566L76.202,67.566z M93.911,73.227c0-3.211-2.468-5.661-6.037-5.661h-3.942v11.358h3.942
		C91.444,78.923,93.911,76.441,93.911,73.227L93.911,73.227z M92.581,73.261c0,2.531-1.834,4.478-4.707,4.478h-2.661v-8.989h2.661
		C90.747,68.749,92.581,70.729,92.581,73.261L92.581,73.261z M110.969,67.566h-1.283v6.603c0,2.483-1.328,3.748-3.421,3.748
		c-2.176,0-3.474-1.378-3.474-3.83v-6.522h-1.283v6.603c0,3.213,1.917,4.933,4.724,4.933c2.838,0,4.737-1.72,4.737-5.03V67.566
		L110.969,67.566z M128.807,77.122l-0.845-0.827c-1.084,1.039-2.108,1.639-3.665,1.639c-2.5,0-4.397-2.061-4.397-4.707
		c0-2.644,1.882-4.671,4.397-4.671c1.539,0,2.611,0.649,3.57,1.557l0.876-0.941c-1.134-1.072-2.37-1.801-4.43-1.801
		c-3.343,0-5.743,2.645-5.743,5.89c0,3.278,2.417,5.857,5.695,5.857C126.325,79.118,127.623,78.324,128.807,77.122L128.807,77.122z
		 M141.519,67.484h-1.202l-5.177,11.44h1.316l1.346-3.002h6.183l1.331,3.002h1.379L141.519,67.484L141.519,67.484z M143.481,74.77
		h-5.177l2.596-5.793L143.481,74.77L143.481,74.77z M156.841,68.749h3.814v-1.184h-8.925v1.184h3.814v10.174h1.298V68.749
		L156.841,68.749z M168.237,67.566v11.358h1.283V67.566H168.237L168.237,67.566z M188.995,73.227c0-3.147-2.319-5.856-5.776-5.856
		c-3.456,0-5.809,2.742-5.809,5.89c0,3.147,2.319,5.857,5.776,5.857S188.995,76.376,188.995,73.227L188.995,73.227z M187.664,73.261
		c0,2.595-1.849,4.673-4.445,4.673c-2.596,0-4.48-2.109-4.48-4.707c0-2.595,1.851-4.671,4.448-4.671
		C185.783,68.555,187.664,70.664,187.664,73.261L187.664,73.261z M205.13,76.667l-7.157-9.101h-1.2v11.358h1.25V69.61l7.333,9.314
		h1.024V67.566h-1.25V76.667z"/>
</g>
</svg>
