<?xml version="1.0" encoding="iso-8859-1"?>
<!-- Generator: Adobe Illustrator 27.1.1, SVG Export Plug-In . SVG Version: 6.00 Build 0)  -->
<svg version="1.1" id="Layer_1" xmlns="http://www.w3.org/2000/svg" xmlns:xlink="http://www.w3.org/1999/xlink" x="0px" y="0px"
	 viewBox="0 0 150 50.1" style="enable-background:new 0 0 150 50.1;" xml:space="preserve">
<g>
	<g>
		<path d="M3.1,4.6h28.4v8.5H13.2v7.5h13.3v7.9H13.2V36h18.2v8.5H3.1V4.6z"/>
	</g>
	<path d="M40.9,43.6c-2.4-1.2-4.2-3-5.5-5.3s-2-5-2-8c0-3.1,0.7-5.8,2-8s3.2-4,5.5-5.3c2.4-1.2,5.2-1.9,8.3-1.9c2.1,0,4,0.2,5.6,0.6
		c1.6,0.4,3.1,1,4.5,1.9v7c-1.2-1-2.6-1.7-4.1-2.1s-3.3-0.6-5.3-0.6c-1.7,0-3.2,0.3-4.6,1c-1.3,0.7-2.4,1.7-3.2,2.9
		c-0.8,1.3-1.2,2.8-1.2,4.4c0,2.6,0.8,4.7,2.3,6.2s3.6,2.3,6.3,2.3c1.5,0,2.7-0.3,3.7-0.8v-4.7h-4.4V28h11.4v14.5
		c-3,1.8-6.6,2.7-11,2.7C46.1,45.5,43.3,44.8,40.9,43.6z"/>
	<path d="M63.1,15.8h13.1c3.4,0,6.1,0.9,8,2.6c1.9,1.7,2.9,4.2,2.9,7.4c0,2.2-0.5,4-1.4,5.5s-2.3,2.7-4,3.4l5.2,10.1h-7.6l-4.6-9.1
		h-4.2v9.1h-7.4V15.8z M74.9,29.5c1.5,0,2.6-0.3,3.4-0.9s1.2-1.5,1.2-2.9s-0.4-2.4-1.2-3c-0.8-0.5-1.9-0.8-3.4-0.8h-4.4v7.6
		C70.5,29.5,74.9,29.5,74.9,29.5z"/>
	<path d="M99.9,15.8h7.2l11.6,29.1h-7.5l-2.3-6H98.2l-2.3,6h-7.6L99.9,15.8z M107.1,33.2l-3.5-9.8l-3.6,9.8H107.1z"/>
	<path d="M120.6,15.8H131c3.2,0,6,0.6,8.4,1.7c2.4,1.2,4.2,2.8,5.5,5s1.9,4.7,1.9,7.6c0,4.8-1.4,8.5-4.2,11s-6.7,3.7-11.8,3.7h-10.2
		C120.6,44.8,120.6,15.8,120.6,15.8z M131.5,38.6c2.5,0,4.5-0.8,5.8-2.3s2-3.6,2-6.2c0-2.4-0.7-4.3-2-5.9c-1.3-1.5-3.2-2.3-5.5-2.3
		H128v16.7H131.5z"/>
	<g>
		<path d="M36.5,8.6h4.3v1.7h-4.3V8.6z"/>
		<path d="M50.2,4.6h2.2v6.7h3.7v1.8h-5.9V4.6z"/>
		<path d="M65,4.6h6v1.8h-3.9V8H70v1.7h-2.8v1.6h3.9v1.8h-6V4.6H65z"/>
		<path d="M83.6,4.6h2.1l3.4,8.5H87l-0.7-1.8h-3.1l-0.7,1.8h-2.2L83.6,4.6z M85.7,9.7l-1-2.9l-1,2.9H85.7z"/>
		<path d="M98.5,4.6h3.8c1,0,1.8,0.3,2.3,0.8c0.6,0.5,0.8,1.2,0.8,2.2c0,0.6-0.1,1.2-0.4,1.6c-0.3,0.4-0.7,0.8-1.2,1l1.5,3h-2.2
			l-1.4-2.7h-1.2v2.7h-2.2V4.6H98.5z M102,8.7c0.4,0,0.8-0.1,1-0.2c0.2-0.2,0.4-0.5,0.4-0.9s-0.1-0.7-0.4-0.9
			c-0.2-0.2-0.6-0.2-1-0.2h-1.3v2.2H102z"/>
		<path d="M115,4.6h2.1l3.1,5.1V4.6h2.2v8.5h-2.1L117.2,8v5.1H115V4.6z"/>
	</g>
</g>
</svg>
